<svg xmlns="http://www.w3.org/2000/svg" xmlns:xlink="http://www.w3.org/1999/xlink" viewBox="0 0 135.2 115.1">
  <defs>
    <radialGradient id="무제_그라디언트_21" data-name="무제 그라디언트 21" cx="11072.83" cy="9622.62" fx="11050.359107635977" r="34.29" gradientTransform="matrix(0.42, 0.91, -0.91, 0.42, 4214.96, -14012.37)" gradientUnits="userSpaceOnUse">
      <stop offset="0.56" stop-color="#ff358e"/>
      <stop offset="0.6" stop-color="#ff3d8e"/>
      <stop offset="0.67" stop-color="#ff518f"/>
      <stop offset="0.76" stop-color="#ff7391"/>
      <stop offset="0.86" stop-color="#ffa293"/>
      <stop offset="0.96" stop-color="#ffde95"/>
      <stop offset="1" stop-color="#fff696"/>
    </radialGradient>
    <radialGradient id="무제_그라디언트_21-2" cx="11072.81" cy="9622.62" fx="11050.34896823991" r="34.27" xlink:href="#무제_그라디언트_21"/>
    <radialGradient id="무제_그라디언트_21-3" cx="11072.83" cy="9622.62" fx="11050.356545658005" r="34.28" xlink:href="#무제_그라디언트_21"/>
    <radialGradient id="무제_그라디언트_21-4" cx="-2033.51" cy="-199.92" fx="-2056.0156376440686" r="34.34" gradientTransform="translate(-238 -1969) rotate(-103.4)" xlink:href="#무제_그라디언트_21"/>
    <radialGradient id="무제_그라디언트_21-5" cx="11072.83" cy="9622.62" fx="11050.356783049347" r="34.28" xlink:href="#무제_그라디언트_21"/>
    <radialGradient id="무제_그라디언트_21-6" cx="11072.83" cy="9622.62" fx="11050.356162910748" r="34.28" xlink:href="#무제_그라디언트_21"/>
    <radialGradient id="무제_그라디언트_21-7" cx="11072.83" cy="9622.62" fx="11050.356857622326" r="34.28" xlink:href="#무제_그라디언트_21"/>
    <radialGradient id="무제_그라디언트_21-8" cx="11072.83" cy="9622.62" fx="11050.3584176558" r="34.28" xlink:href="#무제_그라디언트_21"/>
  </defs>
  <g style="isolation: isolate">
    <g id="레이어_2" data-name="레이어 2">
      <g id="레이어_1-2" data-name="레이어 1">
        <g>
          <path d="M42.3,99.3c2.7-2.2,5-5,8-6.9,6.2-3.6,13.9-2.5,21-1.3q26.9,4.4,53.8,7.1a14,14,0,0,0,5.4-.3c4-1.4,5.5-6.6,4.3-10.6s-4.3-7.2-7.3-10.3C111.1,60.2,96.2,41.9,81.4,23.6,73.7,14.2,65.4,4.3,53.8.7c-6.9-2.1-15.9.5-18.2,8.1a57.4,57.4,0,0,0-1.3,8.3c-.3,2.3-.9,5.6-2.7,7.3s-4.7,2.2-6.9,3.4a12,12,0,0,0-5.4,13.7c1.2,3.7,4.4,7.5,2.8,11.1s-7.8,4-10.7,7.2-1.2,9.8,1.2,14.3c-3.9,2.5-8,5-10.5,8.8s-3.1,9.5,0,12.9c1.2,1.3,3,2.4,3.4,4.1s-.3,2.9-.5,4.3c-.9,4.4,2.3,8.9,6.4,10.2,1.7.6,4,1,5.7.2a13.3,13.3,0,0,0,4.2-4.3,38.2,38.2,0,0,0,3.9-9.3,15,15,0,0,0,14.9-.2A17,17,0,0,0,42.3,99.3Z" style="fill: #fff"/>
          <g>
            <g>
              <path d="M71.2,20.4l.3.4Z" style="fill: none"/>
              <path d="M73.8,23.3A64.5,64.5,0,0,1,80.7,33,58,58,0,0,0,73.8,23.3Z" style="fill: none"/>
              <path d="M72.5,21.8a5.2,5.2,0,0,0,1,1.1A5.2,5.2,0,0,1,72.5,21.8Z" style="fill: none"/>
              <path d="M80.7,33.1l.5.8Z" style="fill: none"/>
              <path d="M43.8,5.8h0Z" style="fill: none"/>
              <path d="M40.5,9.1a8.5,8.5,0,0,0-.4,2.9,8.1,8.1,0,0,1,.8-3.8A3.6,3.6,0,0,0,40.5,9.1Z" style="fill: none"/>
              <path d="M69.6,18.9h0Z" style="fill: none"/>
              <polygon points="32.9 66 32.9 66 30.3 59.3 22.3 62.6 30.3 59.3 32.9 66" style="fill: none"/>
              <path d="M45.1,25.2a65.5,65.5,0,0,0,8.4,10.5h0A70.3,70.3,0,0,1,45.1,25.2Z" style="fill: none"/>
              <path d="M67.9,17.2l.6.5Z" style="fill: none"/>
              <polygon points="47.4 83.9 51.9 80.8 51.9 80.8 47.4 83.9" style="fill: none"/>
              <polygon points="7.8 64 12.9 69.6 7.8 64 7.8 64" style="fill: none"/>
              <polygon points="24.1 39.2 28.3 37.9 31.9 30.6 28.3 37.9 24.1 39.2" style="fill: none"/>
              <path d="M67.3,16.7l-.9-.8C57.6,8.2,49.1,4.6,44.2,5.7,49.2,4.7,58.3,8.6,67.3,16.7Z" style="fill: none"/>
              <polygon points="28 30.5 31.9 30.6 28 30.5 24.1 39.2 28 30.5" style="fill: none"/>
              <polygon points="30.3 59.3 22.3 62.6 14.3 65.9 19 71 32.9 66 30.3 59.3" style="fill: #ff358e"/>
              <path d="M33.1,66.5l.5-.2-.2-.5-2.6-6.7-.2-.5-.5.2-16,6.5-.7.3.5.7,4.7,5.1.2.3h.4Zm-18.7-.6h0l7.9-3.3,8-3.3L32.9,66h0L19,71Z" style="fill: #fff"/>
              <polygon points="24.1 39.2 28.3 37.9 31.9 30.6 28 30.5 24.1 39.2" style="fill: #ff358e"/>
              <path d="M27.4,30.3,23.5,39,23,40.3l1.3-.5,4.2-1.3h.2v-.3l3.7-7.3.4-.9H27.6Zm4.5.3-3.6,7.3-4.2,1.3L28,30.5Z" style="fill: #fff"/>
              <path d="M114.5,83.6a14.1,14.1,0,0,1-5.4,5.5l5.2.7c3.6-.2,6-1.2,7.1-3a5.9,5.9,0,0,0,.4-.8l-6.6-4.2A7.5,7.5,0,0,1,114.5,83.6Z" style="fill: #fff696"/>
              <path d="M84.9,84.1A19,19,0,0,1,81,85.2l15.6,2.2h.1c5.7-2.1,9.4-5.6,11.1-10.3l-8.3-5.3A26.6,26.6,0,0,1,84.9,84.1Z" style="fill: #fff696"/>
              <path d="M84.1,68A31.5,31.5,0,0,1,78,75.8,33.2,33.2,0,0,0,89.3,65.3l-3.1-2A48.4,48.4,0,0,1,84.1,68Z" style="fill: #fff696"/>
              <path d="M124.7,89.2a4.2,4.2,0,0,1-2.8,1.7l6.1.8a1.6,1.6,0,0,0,1.7-.6l-4.4-2.8A2.4,2.4,0,0,1,124.7,89.2Z" style="fill: #fff696"/>
              <path d="M130.5,88.7Z" style="fill: #ff358e"/>
              <path d="M52.9,36.1l-1.6,1.4L53,36.1Z" style="fill: url(#무제_그라디언트_21)"/>
              <path d="M53.5,35.7h0Z" style="fill: url(#무제_그라디언트_21-2)"/>
              <polygon points="66.1 55.4 66.1 55.4 64.8 57.7 59.2 56.5 64.8 57.7 66.1 55.4" style="fill: #fff696"/>
              <polygon points="66.1 55.4 66.1 55.4 64.8 57.7 59.2 56.5 64.8 57.7 66.1 55.4" style="fill: url(#무제_그라디언트_21-3)"/>
              <path d="M60.8,70.9l.2.3a.6.6,0,0,1-.1.4l-2.2,5.2-.3.3-3.8,2.6A19.5,19.5,0,0,0,68.8,79a6.1,6.1,0,0,1-3-3.8,7.2,7.2,0,0,1,1.5-6.8,7,7,0,0,1,2.9-1.9,6.4,6.4,0,0,1,.8-1.4,6.6,6.6,0,0,1,1.5-1.4,5.3,5.3,0,0,1-1.2-2.5,4.8,4.8,0,0,1,0-1.7,2.3,2.3,0,0,1,.1-.7,5.1,5.1,0,0,1-4-1.6,3.1,3.1,0,0,1-.9-1.1L65.4,58a.6.6,0,0,1-.7.3l-8.3-1.8-.4-.3c0-.1-.1-.1-.1-.2v-.3l1.3-4.4a.6.6,0,0,1,.7-.4l7.6,1.9a3.8,3.8,0,0,1,0-1.5,8.3,8.3,0,0,1,.6-2.1,2,2,0,0,1-1.3-.2,3.1,3.1,0,0,1-1.3-2.4,2.1,2.1,0,0,1,.3-1.2c-2-1.4-4-3-6.1-4.7l-3.4-3.2a28.2,28.2,0,0,0-7.7,8.4,4.1,4.1,0,0,0-.5.9c-.1.1-.1.2-.2.2-5.7,10.6-4.3,22.9,3,29.3l11.2-5.5A.6.6,0,0,1,60.8,70.9Zm5.7-4.1-3.3-.3a.7.7,0,0,1-.5-.4h-.1a.9.9,0,0,1,.1-.5l1.6-2.6q.3-.4.6-.3l3.4.3a.5.5,0,0,1,.5.3v.2c.1.1,0,.3-.1.4l-1.6,2.7A.6.6,0,0,1,66.5,66.8Z" style="fill: #fff696"/>
              <path d="M60.8,70.9l.2.3a.6.6,0,0,1-.1.4l-2.2,5.2-.3.3-3.8,2.6A19.5,19.5,0,0,0,68.8,79a6.1,6.1,0,0,1-3-3.8,7.2,7.2,0,0,1,1.5-6.8,7,7,0,0,1,2.9-1.9,6.4,6.4,0,0,1,.8-1.4,6.6,6.6,0,0,1,1.5-1.4,5.3,5.3,0,0,1-1.2-2.5,4.8,4.8,0,0,1,0-1.7,2.3,2.3,0,0,1,.1-.7,5.1,5.1,0,0,1-4-1.6,3.1,3.1,0,0,1-.9-1.1L65.4,58a.6.6,0,0,1-.7.3l-8.3-1.8-.4-.3c0-.1-.1-.1-.1-.2v-.3l1.3-4.4a.6.6,0,0,1,.7-.4l7.6,1.9a3.8,3.8,0,0,1,0-1.5,8.3,8.3,0,0,1,.6-2.1,2,2,0,0,1-1.3-.2,3.1,3.1,0,0,1-1.3-2.4,2.1,2.1,0,0,1,.3-1.2c-2-1.4-4-3-6.1-4.7l-3.4-3.2a28.2,28.2,0,0,0-7.7,8.4,4.1,4.1,0,0,0-.5.9c-.1.1-.1.2-.2.2-5.7,10.6-4.3,22.9,3,29.3l11.2-5.5A.6.6,0,0,1,60.8,70.9Zm5.7-4.1-3.3-.3a.7.7,0,0,1-.5-.4h-.1a.9.9,0,0,1,.1-.5l1.6-2.6q.3-.4.6-.3l3.4.3a.5.5,0,0,1,.5.3v.2c.1.1,0,.3-.1.4l-1.6,2.7A.6.6,0,0,1,66.5,66.8Z" style="fill: url(#무제_그라디언트_21-4)"/>
              <polygon points="66.6 66.2 66.6 66.2 68.2 63.5 66.6 66.2" style="fill: #fff696"/>
              <polygon points="66.6 66.2 66.6 66.2 68.2 63.5 66.6 66.2" style="fill: url(#무제_그라디언트_21-5)"/>
              <path d="M54.9,37.1h0l3.2,3c2.1,1.8,4.1,3.3,6.1,4.7h.2a58.5,58.5,0,0,1-7.7-6Z" style="fill: #fff696"/>
              <path d="M54.9,37.1h0l3.2,3c2.1,1.8,4.1,3.3,6.1,4.7h.2a58.5,58.5,0,0,1-7.7-6Z" style="fill: url(#무제_그라디언트_21-6)"/>
              <polygon points="58.1 76.6 53.9 79.4 53.9 79.4 58.1 76.6 60.4 71.4 55.5 73.8 60.4 71.4 58.1 76.6" style="fill: #fff696"/>
              <polygon points="58.1 76.6 53.9 79.4 53.9 79.4 58.1 76.6 60.4 71.4 55.5 73.8 60.4 71.4 58.1 76.6" style="fill: url(#무제_그라디언트_21-7)"/>
              <path d="M46.1,46.8a4.1,4.1,0,0,1,.5-.9A4.1,4.1,0,0,0,46.1,46.8Z" style="fill: #ff358e"/>
              <path d="M46.1,46.8a4.1,4.1,0,0,1,.5-.9A4.1,4.1,0,0,0,46.1,46.8Z" style="fill: url(#무제_그라디언트_21-8)"/>
              <path d="M75.4,77.9a25,25,0,0,1-6.2,3.4,21.3,21.3,0,0,1-5.9,1.5l2.6.4,11.8,1.6c2.1.3,4.6-.4,7-1.3A25.1,25.1,0,0,0,98.9,71.4l-9.1-5.8A34.7,34.7,0,0,1,75.4,77.9Z" style="fill: #fff"/>
              <path d="M98,87.5,108,89a12.9,12.9,0,0,0,5.9-5.6,15.4,15.4,0,0,0,.8-1.9l-6.4-4.1C106.7,81.9,103.2,85.4,98,87.5Z" style="fill: #fff"/>
              <path d="M121.7,87.1q-1.5,2.4-6,3l3.9.6c2.2.1,3.9-.5,4.8-1.7a3.1,3.1,0,0,0,.5-1l-2.8-1.8A3.6,3.6,0,0,1,121.7,87.1Z" style="fill: #fff"/>
              <path d="M57.2,51.3l-1.3,4.4V56c0,.1.1.1.1.2l.4.3,8.3,1.8a.6.6,0,0,0,.7-.3l1.1-1.9a1.6,1.6,0,0,1-.4-.7l-1.2,2.3-5.7-1.2-2.7-.6,1.3-4.4,7.7,2v-.7l-7.6-1.9A.6.6,0,0,0,57.2,51.3Z" style="fill: #fff"/>
              <path d="M67.8,47.8a31.3,31.3,0,0,1-3.4-2.1,1.5,1.5,0,0,0-.2.9,2.1,2.1,0,0,0,.9,1.8,1.6,1.6,0,0,0,1.5.1c.1-.1.2,0,.3,0l.4-.3Z" style="fill: #f4fcff"/>
              <path d="M64.9,45.2h-.1l3.5,2.1v-.2Z" style="fill: #f4fcff"/>
              <rect x="67.6" y="48.4" width="0.9" transform="translate(-15.1 56.4) rotate(-40.9)" style="fill: #f4fcff"/>
              <rect x="76.7" y="50.3" height="0.14" transform="translate(-14.5 60.5) rotate(-39.6)" style="fill: #f4fcff"/>
              <path d="M84.1,47h0a.3.3,0,0,0-.1.2C84,47.1,84.1,47.1,84.1,47Z" style="fill: #f4fcff"/>
              <polygon points="77.3 51.1 79.9 54.3 77.3 51.1 77.3 51.1" style="fill: #f4fcff"/>
              <polygon points="68.8 47.7 68.8 47.7 69 47.6 69 47.6 68.8 47.7" style="fill: #f4fcff"/>
              <path d="M83.2,48.5c-1.3,1.6-3.2,2.2-5.6,2h.1c3,.2,5.2-.8,6.2-3.1A4.1,4.1,0,0,1,83.2,48.5Z" style="fill: #f4fcff"/>
              <path d="M80.7,54.2l-.2.4-2.7,5-.5.8-.6-.7L67.2,49.1l-.2-.2h0a5.8,5.8,0,0,0-.9,2.5,6.5,6.5,0,0,0,1.7,5.4,4.8,4.8,0,0,0,4.1,1.3h0c.2,0,.3.1.4.3a.3.3,0,0,1-.1.2,4.7,4.7,0,0,0-.3.9,4.3,4.3,0,0,0,0,1.6,4.4,4.4,0,0,0,2.5,3.2,3.6,3.6,0,0,0,4-.7c.1-.1.3-.2.4,0a.2.2,0,0,1,.1.4c-1.2,1.4-3.3,1.4-4.8.8a2.6,2.6,0,0,1-1.1-.7,5,5,0,0,0-1.5,1.4,5.3,5.3,0,0,0-1,4,8.5,8.5,0,0,0,1.2,2.6.3.3,0,1,1-.5.3,7.1,7.1,0,0,1-1.3-2.8,6,6,0,0,1,.1-2.3,7,7,0,0,0-2.3,1.5A6.8,6.8,0,0,0,66.4,75a5.8,5.8,0,0,0,3.1,3.7A27.5,27.5,0,0,0,82,66.8,26.5,26.5,0,0,0,84.7,47v.2a5.7,5.7,0,0,1-4,3.7,10.1,10.1,0,0,1-2.5.3l2.2,2.7Z" style="fill: #f4fcff"/>
              <path d="M48.3,76.6c-7.3-6.7-8.8-19.1-2.9-29.9a29.3,29.3,0,0,1,8.5-9.6l-.5-.5a29.3,29.3,0,0,0-8.6,9.8,28.5,28.5,0,0,0-3,20.1A20.6,20.6,0,0,0,47.6,77Z" style="fill: #ffff92"/>
              <rect x="52.9" y="79.6" height="0.97" style="fill: #ffff92"/>
              <path d="M54,36.2h0l.4.5h.1Z" style="fill: #ffff92"/>
              <path d="M53.1,80.7a21,21,0,0,0,15.8.1A28.2,28.2,0,0,0,83.5,67.7C88,59.5,88.3,50.2,85,43.2a11.3,11.3,0,0,1,0,2.6,12.1,12.1,0,0,1,.5,1.8,27.4,27.4,0,0,1-3,19.5C76.3,78.5,63.9,84,54,80.1Z" style="fill: #ffff92"/>
              <polygon points="52.5 80.4 52.5 80.4 53.3 79.8 53.3 79.8 53.9 79.4 53.9 79.4 58.1 76.6 60.4 71.4 55.5 73.8 47.8 77.6 47.4 83.9 51.9 80.8 51.9 80.8 52.5 80.4" style="fill: #ff358e"/>
              <path d="M67.7,48.7l.7-.6-.6-.3-.5.4-.4.3h-.1l.2.3.2.2,9.5,10.6.6.7.5-.8,2.7-5,.2-.4-.3-.3-2.2-2.7h-.9l2.6,3.2-2.7,5L67.7,48.7Z" style="fill: #fff"/>
              <path d="M68.4,47.2v.2l.6.3H69Z" style="fill: #fff"/>
              <path d="M76.7,50.3v.2h.8Z" style="fill: #fff"/>
              <path d="M53.1,80.7l.9-.6.6-.4,3.8-2.6.3-.3,2.2-5.2a.6.6,0,0,0,.1-.4l-.2-.3a.6.6,0,0,0-.7-.1L48.9,76.3l-.6.3-.7.4h-.1a.5.5,0,0,0-.3.5h0l-.5,6.2V84l.3.4h.7l4.8-3.3Zm-5.8,3.2.5-6.3,7.7-3.8,4.9-2.4-2.3,5.2-4.2,2.8-.6.4-.8.6-.6.4Z" style="fill: #fff"/>
              <polygon points="64.9 63.2 63.2 65.9 66.6 66.2 68.2 63.5 64.9 63.2" style="fill: #ff358e"/>
              <path d="M68.7,63.8c.1-.1.2-.3.1-.4v-.2a.5.5,0,0,0-.5-.3l-3.4-.3q-.3-.1-.6.3l-1.6,2.6a.9.9,0,0,0-.1.5h.1a.7.7,0,0,0,.5.4l3.3.3a.6.6,0,0,0,.6-.3Zm-2.1,2.4-3.4-.3,1.7-2.7,3.3.3-1.6,2.7Z" style="fill: #fff"/>
              <path d="M44.2,5.7h-.4a4.6,4.6,0,0,0-2.9,2.4,8.1,8.1,0,0,0-.8,3.8,16.5,16.5,0,0,0,.4,3,36,36,0,0,0,4.6,10.2,70.3,70.3,0,0,0,8.4,10.5h.1l.4.5.5.5.4.4,1.8,1.7a58.5,58.5,0,0,0,7.7,6l.5.4,3.5,2,.6.4h0a24.6,24.6,0,0,0,7.7,2.7h0l.9.2c2.4.2,4.3-.4,5.6-2a4.1,4.1,0,0,0,.7-1.1,15734929547254.3,15734929547254.3,0,0,0,.2-.4,10.8,10.8,0,0,0-.1-5.9,33.1,33.1,0,0,0-2.8-7.2l-.5-.8h0a64.5,64.5,0,0,0-6.9-9.7l-.3-.4a5.2,5.2,0,0,1-1-1.1,9.4,9.4,0,0,1-1-1l-.3-.4L69.8,19h-.2l-1.1-1.2-.6-.5-.6-.5C58.3,8.6,49.2,4.7,44.2,5.7ZM68.8,25.9a1.1,1.1,0,0,1,.8.3.5.5,0,0,1,.3.5,2,2,0,0,1-.5,1.7,1.6,1.6,0,0,1-1.2.6,1.1,1.1,0,0,1-.8-.3c-.5-.5-.4-1.4.2-2.2A1.6,1.6,0,0,1,68.8,25.9ZM54.3,22.1a2.9,2.9,0,0,0,2,.2.8.8,0,0,0,.5-.5c0-.2.2-.2.4-.2a.2.2,0,0,1,.2.2V22a1.6,1.6,0,0,1-.9.9h-.4c-.4.9,0,2.7.8,4.3,2.1,3.8,5.9,6,8.2,5.7,0-1.1.4-1.7,1-1.9s.4,0,.4.2h0c.1.1,0,.3-.2.4s-.6,1-.5,1.5a4.9,4.9,0,0,0,1.5,3.1.4.4,0,0,1,0,.5.3.3,0,0,1-.4,0,6.7,6.7,0,0,1-1.7-3.2c-2.6.3-6.6-2-8.8-6a7.1,7.1,0,0,1-1-4.6,2.2,2.2,0,0,1-1.3-.4.4.4,0,0,1-.2-.4A.2.2,0,0,1,54.3,22.1Zm6.3-4.7a1.1,1.1,0,0,1,.8.3l.3.5a2.3,2.3,0,0,1-.5,1.7,1.6,1.6,0,0,1-1.2.6,1.1,1.1,0,0,1-.8-.3,1.6,1.6,0,0,1,.2-2.1A1.9,1.9,0,0,1,60.6,17.4Z" style="fill: #ffeda3"/>
              <path d="M59.2,20.2a1.1,1.1,0,0,0,.8.3,1.6,1.6,0,0,0,1.2-.6,2.3,2.3,0,0,0,.5-1.7l-.3-.5a1.1,1.1,0,0,0-.8-.3,1.9,1.9,0,0,0-1.2.7A1.6,1.6,0,0,0,59.2,20.2Z" style="fill: #ff358e"/>
              <path d="M67.4,28.7a1.1,1.1,0,0,0,.8.3,1.6,1.6,0,0,0,1.2-.6,2,2,0,0,0,.5-1.7.5.5,0,0,0-.3-.5,1.1,1.1,0,0,0-.8-.3,1.6,1.6,0,0,0-1.2.6C67,27.3,66.9,28.2,67.4,28.7Z" style="fill: #ff358e"/>
              <path d="M54.1,22.6a2.2,2.2,0,0,0,1.3.4,7.1,7.1,0,0,0,1,4.6c2.2,4,6.2,6.3,8.8,6a6.7,6.7,0,0,0,1.7,3.2.3.3,0,0,0,.4,0,.4.4,0,0,0,0-.5,4.9,4.9,0,0,1-1.5-3.1c-.1-.5,0-1.4.5-1.5s.3-.3.2-.4h0c0-.2-.2-.3-.4-.2s-1,.8-1,1.9c-2.3.3-6.1-1.9-8.2-5.7-.8-1.6-1.2-3.4-.8-4.3h.4a1.6,1.6,0,0,0,.9-.9v-.2a.2.2,0,0,0-.2-.2c-.2,0-.4,0-.4.2a.8.8,0,0,1-.5.5,2.9,2.9,0,0,1-2-.2.2.2,0,0,0-.4.1A.4.4,0,0,0,54.1,22.6Z" style="fill: #ff358e"/>
              <path d="M39.9,8.9a11.2,11.2,0,0,0,0,6.3c1.5,6.2,6.4,14,13,20.9H53l-1.7,1.4a29.7,29.7,0,0,0-7,8.6c-6.1,11.2-4.6,24.1,2.9,31.4a.5.5,0,0,1,.3-.5h.1a20.6,20.6,0,0,1-5.8-10.5,28.5,28.5,0,0,1,3-20.1,29.3,29.3,0,0,1,8.6-9.8l.5.5a29.3,29.3,0,0,0-8.5,9.6C39.5,57.5,41,69.9,48.3,76.6l.6-.3c-7.3-6.4-8.7-18.7-3-29.3.1,0,.1-.1.2-.2a4.1,4.1,0,0,1,.5-.9,28.2,28.2,0,0,1,7.7-8.4l3.4,3.2c2.1,1.7,4.1,3.3,6.1,4.7a2.1,2.1,0,0,0-.3,1.2A3.1,3.1,0,0,0,64.8,49a2,2,0,0,0,1.3.2,8.3,8.3,0,0,0-.6,2.1,3.8,3.8,0,0,0,0,1.5v.7l-7.7-2-1.3,4.4,2.7.6,5.7,1.2,1.2-2.3h0a1.6,1.6,0,0,0,.4.7,3.1,3.1,0,0,0,.9,1.1,5.1,5.1,0,0,0,4,1.6,2.3,2.3,0,0,0-.1.7,4.8,4.8,0,0,0,0,1.7,5.3,5.3,0,0,0,1.2,2.5A6.6,6.6,0,0,0,71,65.1a6.4,6.4,0,0,0-.8,1.4,7,7,0,0,0-2.9,1.9,7.2,7.2,0,0,0-1.5,6.8,6.1,6.1,0,0,0,3,3.8,19.5,19.5,0,0,1-14.2.7l-.6.4c9.9,3.9,22.3-1.6,28.5-13a27.4,27.4,0,0,0,3-19.5,12.1,12.1,0,0,0-.5-1.8,11.3,11.3,0,0,0,0-2.6c3.3,7,3,16.3-1.5,24.5A28.2,28.2,0,0,1,68.9,80.8a21,21,0,0,1-15.8-.1l-.6.4a19.6,19.6,0,0,0,6.3,1.7l5.3.7,1.6.3,4.9.6,7.1,1h0l30.2,4.2h.1l19.9,2.8a2.6,2.6,0,0,0,2.6-1.4,2.5,2.5,0,0,0,.2-1.7V89a4,4,0,0,1-.1,1.5l-.6.7h-.2a1.6,1.6,0,0,1-1.7.6l-6.1-.8a4.2,4.2,0,0,0,2.8-1.7,2.4,2.4,0,0,0,.6-.9l-.4-.3a3.1,3.1,0,0,1-.5,1c-.9,1.2-2.6,1.8-4.8,1.7l-3.9-.6q4.5-.6,6-3a3.6,3.6,0,0,0,.4-.9l-.3-.2a5.9,5.9,0,0,1-.4.8c-1.1,1.8-3.5,2.8-7.1,3l-5.2-.7a14.1,14.1,0,0,0,5.4-5.5,7.5,7.5,0,0,0,.7-1.8l-.5-.3a15.4,15.4,0,0,1-.8,1.9A12.9,12.9,0,0,1,108,89L98,87.5c5.2-2.1,8.7-5.6,10.3-10.1l-.5-.3c-1.7,4.7-5.4,8.2-11.1,10.3h-.1L81,85.2a19,19,0,0,0,3.9-1.1A26.6,26.6,0,0,0,99.5,71.8l-.6-.4A25.1,25.1,0,0,1,84.7,83.5c-2.4.9-4.9,1.6-7,1.3L65.9,83.2l-2.6-.4a21.3,21.3,0,0,0,5.9-1.5,25,25,0,0,0,6.2-3.4A34.7,34.7,0,0,0,89.8,65.6l-.5-.3A33.2,33.2,0,0,1,78,75.8,31.5,31.5,0,0,0,84.1,68a48.4,48.4,0,0,0,2.1-4.7l-.3-.2c1.7-6.6,2.8-11.3-1.2-21.3l43.9,44.9L85,41.7l-.3-.5a.4.4,0,0,0-.1-.3c-1.8-7.6-8.8-17.6-17.7-25.5S49.1,3.8,43.9,5.2A5.4,5.4,0,0,0,39.9,8.9Zm40,45.4-2.6-3.2h.9a10.1,10.1,0,0,0,2.5-.3,5.7,5.7,0,0,0,4-3.7V47A26.5,26.5,0,0,1,82,66.8,27.5,27.5,0,0,1,69.5,78.7,5.8,5.8,0,0,1,66.4,75a6.8,6.8,0,0,1,1.3-6.2A7,7,0,0,1,70,67.3a6,6,0,0,0-.1,2.3,7.1,7.1,0,0,0,1.3,2.8.3.3,0,1,0,.5-.3,8.5,8.5,0,0,1-1.2-2.6,5.3,5.3,0,0,1,1-4A5,5,0,0,1,73,64.1a2.6,2.6,0,0,0,1.1.7c1.5.6,3.6.6,4.8-.8a.2.2,0,0,0-.1-.4c-.1-.2-.3-.1-.4,0a3.6,3.6,0,0,1-4,.7,4.4,4.4,0,0,1-2.5-3.2,4.3,4.3,0,0,1,0-1.6,4.7,4.7,0,0,1,.3-.9.3.3,0,0,0,.1-.2c-.1-.2-.2-.3-.4-.3h0a4.8,4.8,0,0,1-4.1-1.3,6.5,6.5,0,0,1-1.7-5.4,5.8,5.8,0,0,1,.9-2.5h0l-.2-.3h.1c-.1,0-.2-.1-.3,0a1.6,1.6,0,0,1-1.5-.1,2.1,2.1,0,0,1-.9-1.8,1.5,1.5,0,0,1,.2-.9,31.3,31.3,0,0,0,3.4,2.1l.6.3h0l-.7.6,9.5,10.6ZM66.4,15.9l.9.8.6.5.6.5,1.1,1.2h.2l1.4,1.4.3.4a9.4,9.4,0,0,0,1,1,5.2,5.2,0,0,0,1,1.1l.3.4A58,58,0,0,1,80.7,33h0l.5.8A33.1,33.1,0,0,1,84,41.1a10.8,10.8,0,0,1,.1,5.9h0c0,.1-.1.1-.1.2a.3.3,0,0,0-.1.2c-1,2.3-3.2,3.3-6.2,3.1h-.9v-.2A24.6,24.6,0,0,1,69,47.6h-.1l-.6-.3-3.5-2.1h.1l-.5-.4h-.2c-2-1.4-4-2.9-6.1-4.7l-3.2-3h0l-.4-.4h-.1l-.4-.5h0l-.4-.5h-.1a65.5,65.5,0,0,1-8.4-10.5A36,36,0,0,1,40.5,15a16.5,16.5,0,0,1-.4-3,8.5,8.5,0,0,1,.4-2.9,3.6,3.6,0,0,1,.4-.9,4.6,4.6,0,0,1,2.9-2.4h.4C49.1,4.6,57.6,8.2,66.4,15.9Z" style="fill: #ff358e"/>
              <path d="M130.5,88.7l-.5-.6-1.4-1.4,1.5,1.5Z" style="fill: #ff318b;mix-blend-mode: hard-light;opacity: 0.5"/>
              <path d="M130.5,88.7a.4.4,0,0,0,.1.3Z" style="fill: #ff318b;mix-blend-mode: hard-light;opacity: 0.5"/>
              <path d="M129.9,90.8a1.9,1.9,0,0,0-.3-2.2h0l-3.9-4a7.2,7.2,0,0,1-.4,3.7l4.4,2.8C129.8,91,129.9,90.9,129.9,90.8Z" style="fill: #fff696"/>
              <path d="M129.9,90.8a1.9,1.9,0,0,0-.3-2.2h0l-3.9-4a7.2,7.2,0,0,1-.4,3.7l4.4,2.8C129.8,91,129.9,90.9,129.9,90.8Z" style="fill: #ff318b;mix-blend-mode: hard-light;opacity: 0.5"/>
              <path d="M121,80.1a.8.8,0,0,0-.2-.5L116,74.5v.9a19.4,19.4,0,0,1-.8,6.4l6.6,4.2C122.5,83.9,121.5,81.4,121,80.1Z" style="fill: #fff696"/>
              <path d="M121,80.1a.8.8,0,0,0-.2-.5L116,74.5v.9a19.4,19.4,0,0,1-.8,6.4l6.6,4.2C122.5,83.9,121.5,81.4,121,80.1Z" style="fill: #ff318b;mix-blend-mode: hard-light;opacity: 0.5"/>
              <path d="M91.6,61a27.4,27.4,0,0,0,2.2-9.3l-8-8.2a23.5,23.5,0,0,1,1.4,4,28.7,28.7,0,0,1-1,15.8l3.1,2A30.6,30.6,0,0,0,91.6,61Z" style="fill: #fff696"/>
              <path d="M91.6,61a27.4,27.4,0,0,0,2.2-9.3l-8-8.2a23.5,23.5,0,0,1,1.4,4,28.7,28.7,0,0,1-1,15.8l3.1,2A30.6,30.6,0,0,0,91.6,61Z" style="fill: #ff318b;mix-blend-mode: hard-light;opacity: 0.5"/>
              <path d="M108.5,66.9h.1L101.9,60v.9a24.6,24.6,0,0,1-.4,5.4,22.7,22.7,0,0,1-2,5.5l8.3,5.3a21.3,21.3,0,0,0,.8-9.9Z" style="fill: #fff696"/>
              <path d="M108.5,66.9h.1L101.9,60v.9a24.6,24.6,0,0,1-.4,5.4,22.7,22.7,0,0,1-2,5.5l8.3,5.3a21.3,21.3,0,0,0,.8-9.9Z" style="fill: #ff318b;mix-blend-mode: hard-light;opacity: 0.5"/>
              <path d="M101.3,60.9a5.2,5.2,0,0,0-.3-1.8l-6.6-6.8a28.5,28.5,0,0,1-4.6,13.3l9.1,5.8a20,20,0,0,0,2-5.3A22.8,22.8,0,0,0,101.3,60.9Z" style="fill: #fff"/>
              <path d="M101.3,60.9a5.2,5.2,0,0,0-.3-1.8l-6.6-6.8a28.5,28.5,0,0,1-4.6,13.3l9.1,5.8a20,20,0,0,0,2-5.3A22.8,22.8,0,0,0,101.3,60.9Z" style="fill: #ff318b;mix-blend-mode: hard-light;opacity: 0.5"/>
              <path d="M115.1,73.8l-5.8-6a20,20,0,0,1-1,9.6l6.4,4.1a22.9,22.9,0,0,0,.7-6.1A4.1,4.1,0,0,0,115.1,73.8Z" style="fill: #fff"/>
              <path d="M115.1,73.8l-5.8-6a20,20,0,0,1-1,9.6l6.4,4.1a22.9,22.9,0,0,0,.7-6.1A4.1,4.1,0,0,0,115.1,73.8Z" style="fill: #ff318b;mix-blend-mode: hard-light;opacity: 0.5"/>
              <path d="M84.7,41.8c4,10,2.9,14.7,1.2,21.3l.3.2a28.7,28.7,0,0,0,1-15.8,23.5,23.5,0,0,0-1.4-4l8,8.2A27.4,27.4,0,0,1,91.6,61a30.6,30.6,0,0,1-2.3,4.3l.5.3a28.5,28.5,0,0,0,4.6-13.3l6.6,6.8a5.2,5.2,0,0,1,.3,1.8,22.8,22.8,0,0,1-.4,5.2,20,20,0,0,1-2,5.3l.6.4a22.7,22.7,0,0,0,2-5.5,24.6,24.6,0,0,0,.4-5.4V60l6.7,6.9h-.1v.3a21.3,21.3,0,0,1-.8,9.9l.5.3a20,20,0,0,0,1-9.6l5.8,6a4.1,4.1,0,0,1,.3,1.6,22.9,22.9,0,0,1-.7,6.1l.5.3a19.4,19.4,0,0,0,.8-6.4v-.9l4.8,5.1a.8.8,0,0,1,.2.5c.5,1.3,1.5,3.8.8,5.9l.3.2c.9-2.2-.1-4.7-.6-6.1l3.6,3.8a6.5,6.5,0,0,1-.2,4.1l.4.3a7.2,7.2,0,0,0,.4-3.7l3.9,4h0a1.9,1.9,0,0,1,.3,2.2c0,.1-.1.2-.2.3h.2l.6-.7a4,4,0,0,0,.1-1.5.4.4,0,0,1-.1-.3h0l-.4-.5-1.5-1.5Z" style="fill: #ff358e"/>
              <path d="M84.7,41.8c4,10,2.9,14.7,1.2,21.3l.3.2a28.7,28.7,0,0,0,1-15.8,23.5,23.5,0,0,0-1.4-4l8,8.2A27.4,27.4,0,0,1,91.6,61a30.6,30.6,0,0,1-2.3,4.3l.5.3a28.5,28.5,0,0,0,4.6-13.3l6.6,6.8a5.2,5.2,0,0,1,.3,1.8,22.8,22.8,0,0,1-.4,5.2,20,20,0,0,1-2,5.3l.6.4a22.7,22.7,0,0,0,2-5.5,24.6,24.6,0,0,0,.4-5.4V60l6.7,6.9h-.1v.3a21.3,21.3,0,0,1-.8,9.9l.5.3a20,20,0,0,0,1-9.6l5.8,6a4.1,4.1,0,0,1,.3,1.6,22.9,22.9,0,0,1-.7,6.1l.5.3a19.4,19.4,0,0,0,.8-6.4v-.9l4.8,5.1a.8.8,0,0,1,.2.5c.5,1.3,1.5,3.8.8,5.9l.3.2c.9-2.2-.1-4.7-.6-6.1l3.6,3.8a6.5,6.5,0,0,1-.2,4.1l.4.3a7.2,7.2,0,0,0,.4-3.7l3.9,4h0a1.9,1.9,0,0,1,.3,2.2c0,.1-.1.2-.2.3h.2l.6-.7a4,4,0,0,0,.1-1.5.4.4,0,0,1-.1-.3h0l-.4-.5-1.5-1.5Z" style="fill: #ff318b;mix-blend-mode: hard-light;opacity: 0.5"/>
              <path d="M125.1,83.9l-3.6-3.8c.5,1.4,1.5,3.9.6,6.1l2.8,1.8A6.5,6.5,0,0,0,125.1,83.9Z" style="fill: #fff"/>
              <path d="M125.1,83.9l-3.6-3.8c.5,1.4,1.5,3.9.6,6.1l2.8,1.8A6.5,6.5,0,0,0,125.1,83.9Z" style="fill: #ff318b;mix-blend-mode: hard-light;opacity: 0.5"/>
            </g>
            <g>
              <path d="M31.4,94.6c.9.9,2.7-.1,3.6-.8s2.8-3.8,2.1-4.9a1.9,1.9,0,0,0-1.5-1,10.8,10.8,0,0,0-4.5.4C30.2,91.3,30.5,93.7,31.4,94.6Z" style="fill: none"/>
              <path d="M3.6,91.2c5.8-6.9,11.5-9,15.2-9.6a16.5,16.5,0,0,1,6.8.4l.3-1.1a14.4,14.4,0,0,0-7-.5c-3.9.6-9.8,2.8-15.8,10Z" style="fill: #ff358e"/>
              <path d="M18.9,82a13.2,13.2,0,0,1,6.8.5h.2l.5-2h-.1a17.7,17.7,0,0,0-7.4-.5c-4,.6-10.1,2.8-16.2,10.3H2.6l1,1.5.2-.2C9.5,84.7,15.2,82.6,18.9,82Zm0-1.6a14.4,14.4,0,0,1,7,.5L25.6,82a16.5,16.5,0,0,0-6.8-.4c-3.7.6-9.4,2.7-15.2,9.6l-.5-.8C9.1,83.2,15,81,18.9,80.4Z" style="fill: #fff"/>
              <path d="M38.3,79.4l-1.2-1.9h-.2a22.8,22.8,0,0,0-5.4,4.6,19,19,0,0,0-2.3,3.9H29l-1.6.6C18,90.7,14.3,96.9,12.8,101.4a21.7,21.7,0,0,0-1,8.8l2.2-.4c-.2-1.8-1.1-14.3,13.9-20.7h.2c0,.1.1.1,0,.2-.6,3-.1,5.6,1.3,7.1s3.2,2.5,7.2-.5,4.3-5.9,2.9-8.4-2.5-2.9-7-2.2h-.2c-.1-.1-.1-.1,0-.2a7.1,7.1,0,0,1,1-1.4,18.7,18.7,0,0,1,4.8-4.1Zm-2.6,8.1a2.7,2.7,0,0,1,1.8,1.2c.7,1.3,0,3.8-2.2,5.4a6,6,0,0,1-2.4,1.2,1.7,1.7,0,0,1-1.8-.5c-1.1-1.1-1.3-3.9-.3-6.7h.1A11.1,11.1,0,0,1,35.7,87.5Z" style="fill: #ff358e"/>
              <path d="M37.3,77.1H37l-.3.3a23,23,0,0,0-5.5,4.6,19.5,19.5,0,0,0-2.4,3.9l-1.6.7c-9.5,3.9-13.3,10.2-14.8,14.8a22.2,22.2,0,0,0-1,9.1v.2h.2l2.6-.4h0a.2.2,0,0,0,.2-.2c-.1-.6-2-13.7,13.2-20.4-.5,3,0,5.5,1.4,7.1s3.5,2.7,7.8-.5,4.4-6.2,2.9-8.9c-.7-1.2-2.5-3-6.9-2.5l.7-.9a21,21,0,0,1,4.8-4.1l.3-.2h.1v-.2Zm-5,7.9c-.1.1-.1.1,0,.2h.2c4.5-.7,6.3,1.1,7,2.2s.1,6.2-2.9,8.4-6.3,1.3-7.2.5-1.9-4.1-1.3-7.1c.1-.1,0-.1,0-.2h-.2C12.9,95.5,13.8,108,14,109.8l-2.2.4a21.7,21.7,0,0,1,1-8.8c1.5-4.5,5.2-10.7,14.6-14.6l1.6-.6h.2a19,19,0,0,1,2.3-3.9,22.8,22.8,0,0,1,5.4-4.6h.2l1.2,1.9h-.2a18.7,18.7,0,0,0-4.8,4.1A7.1,7.1,0,0,0,32.3,85Z" style="fill: #fff"/>
              <path d="M30.9,88h-.1c-1,2.8-.8,5.6.3,6.7a1.7,1.7,0,0,0,1.8.5,6,6,0,0,0,2.4-1.2c2.2-1.6,2.9-4.1,2.2-5.4a2.7,2.7,0,0,0-1.8-1.2A11.1,11.1,0,0,0,30.9,88Zm4.7-.1a1.9,1.9,0,0,1,1.5,1c.7,1.1,0,3.4-2.1,4.9s-2.7,1.7-3.6.8-1.2-3.3-.3-6.3A10.8,10.8,0,0,1,35.6,87.9Z" style="fill: #fff"/>
            </g>
          </g>
        </g>
      </g>
    </g>
  </g>
</svg>
